# Blender v2.93.4 OBJ File: 'heart.blend'
# www.blender.org
mtllib heart3.mtl
o Cube_Cube.001
v -1.000000 0.500000 0.000000
v -0.500000 1.000000 0.000000
v 1.000000 0.500000 0.000000
v 0.500000 1.000000 0.000000
v 0.000000 -1.000000 0.000000
v 0.000000 0.150000 0.200000
v 1.000000 0.000000 0.000000
v 0.000000 0.150000 -0.200000
v -1.000000 0.000000 0.000000
v 0.000000 0.500000 0.000000
vt 1.000000 0.400707
vt 0.725479 0.270284
vt 1.000000 0.200308
vt 0.800398 0.200399
vt 0.800398 0.000000
vt 0.230784 0.230790
vt 0.300597 0.300600
vt 0.300597 0.500999
vt 0.100199 0.501005
vt 0.600796 0.000091
vt 0.500995 0.100335
vt 0.900199 0.500952
vt 0.500995 0.501133
vt 0.500995 0.300594
vt 0.500995 0.100196
vt 0.400796 0.000000
vt 0.000000 0.000013
vt 0.000000 0.400810
vn 0.1450 0.1450 -0.9787
vn -0.4444 0.4444 -0.7778
vn 0.4444 0.4444 -0.7778
vn 0.4444 0.4444 0.7778
vn -0.1450 0.1450 0.9787
vn -0.1450 0.1450 -0.9787
vn -0.1961 0.0000 -0.9806
vn 0.1961 0.0000 -0.9806
vn 0.1689 -0.1689 -0.9711
vn -0.1689 -0.1689 -0.9711
vn 0.1450 0.1450 0.9787
vn 0.1961 0.0000 0.9806
vn 0.1689 -0.1689 0.9711
vn -0.1961 0.0000 0.9806
vn -0.1689 -0.1689 0.9711
vn -0.4444 0.4444 0.7778
usemtl blue_mat
s off
f 3/1/1 8/2/1 4/3/1
f 4/3/2 8/2/2 10/4/2
f 2/5/3 10/4/3 8/2/3
f 6/6/4 10/7/4 2/8/4
f 2/8/5 1/9/5 6/6/5
f 2/5/6 8/2/6 1/10/6
f 9/11/7 1/10/7 8/2/7
f 8/2/8 3/1/8 7/12/8
f 5/13/9 8/2/9 7/12/9
f 8/2/10 5/13/10 9/11/10
f 4/14/11 6/6/11 3/15/11
f 7/16/12 3/15/12 6/6/12
f 7/16/13 6/6/13 5/17/13
f 9/18/14 6/6/14 1/9/14
f 5/17/15 6/6/15 9/18/15
f 6/6/16 4/14/16 10/7/16
