# Blender v2.93.4 OBJ File: ''
# www.blender.org
o Cube_Cube.001
v -1.000000 0.500000 0.000000
v -0.500000 1.000000 0.000000
v 1.000000 0.500000 0.000000
v 0.500000 1.000000 0.000000
v 0.000000 -1.000000 0.000000
v 0.000000 0.150000 0.200000
v 1.000000 0.000000 0.000000
v 0.000000 0.150000 -0.200000
v -1.000000 0.000000 0.000000
v 0.000000 0.500000 0.000000
v 0.500000 1.000000 0.000000
v 0.500000 1.000000 0.000000
v 0.500000 1.000000 0.000000
v 1.000000 0.500000 0.000000
v 1.000000 0.500000 0.000000
v 1.000000 0.500000 0.000000
v 0.000000 0.150000 -0.200000
v 0.000000 0.150000 -0.200000
v 0.000000 0.150000 -0.200000
v 0.000000 0.150000 -0.200000
v 0.000000 0.150000 -0.200000
v 0.000000 0.150000 -0.200000
v 0.000000 0.150000 -0.200000
v -1.000000 0.500000 0.000000
v -1.000000 0.500000 0.000000
v -1.000000 0.500000 0.000000
v -0.500000 1.000000 0.000000
v -0.500000 1.000000 0.000000
v -0.500000 1.000000 0.000000
v 1.000000 0.000000 0.000000
v 1.000000 0.000000 0.000000
v 1.000000 0.000000 0.000000
v -1.000000 0.000000 0.000000
v -1.000000 0.000000 0.000000
v -1.000000 0.000000 0.000000
v 0.000000 0.150000 0.200000
v 0.000000 0.150000 0.200000
v 0.000000 0.150000 0.200000
v 0.000000 0.150000 0.200000
v 0.000000 0.150000 0.200000
v 0.000000 0.150000 0.200000
v 0.000000 0.150000 0.200000
v 0.000000 0.500000 0.000000
v 0.000000 0.500000 0.000000
v 0.000000 0.500000 0.000000
v 0.000000 -1.000000 0.000000
v 0.000000 -1.000000 0.000000
v 0.000000 -1.000000 0.000000
vn 0.1450 0.1450 -0.9787
vn -0.4444 0.4444 -0.7778
vn 0.4444 0.4444 -0.7778
vn 0.4444 0.4444 0.7778
vn -0.1450 0.1450 0.9787
vn -0.1450 0.1450 -0.9787
vn -0.1961 0.0000 -0.9806
vn 0.1961 0.0000 -0.9806
vn 0.1689 -0.1689 -0.9711
vn -0.1689 -0.1689 -0.9711
vn 0.1450 0.1450 0.9787
vn 0.1961 0.0000 0.9806
vn 0.1689 -0.1689 0.9711
vn -0.1961 0.0000 0.9806
vn -0.1689 -0.1689 0.9711
vn -0.4444 0.4444 0.7778
s off
f 14//1 17//1 11//1
f 13//2 18//2 44//2
f 28//3 45//3 19//3
f 37//4 43//4 29//4
f 27//5 24//5 38//5
f 2//6 20//6 26//6
f 33//7 25//7 21//7
f 22//8 15//8 30//8
f 46//9 23//9 31//9
f 8//10 47//10 34//10
f 12//11 36//11 16//11
f 32//12 3//12 39//12
f 7//13 40//13 48//13
f 35//14 41//14 1//14
f 5//15 6//15 9//15
f 42//16 4//16 10//16
